<svg width="350" height="260" viewBox="0 0 350 260" xmlns="http://www.w3.org/2000/svg" role="img" aria-label="Two-card usage popup preview">
  <defs>
    <linearGradient id="bg" x1="0" y1="0" x2="350" y2="260"><stop stop-color="#14172B"/><stop offset="1" stop-color="#1D2140"/></linearGradient>
    <linearGradient id="blue" x1="30" y1="90" x2="300" y2="210"><stop stop-color="#43A0FF"/><stop offset="1" stop-color="#62C9FF"/></linearGradient>
    <style>.title{font:700 17px Segoe UI,Arial,sans-serif;fill:#F8FAFF}.sub{font:400 12px Segoe UI,Arial,sans-serif;fill:#9FB0D3}.label{font:700 13px Segoe UI,Arial,sans-serif;fill:#F6F8FF}.percent{font:700 26px Segoe UI,Arial,sans-serif;fill:#F8FAFF}.time{font:500 13px Segoe UI,Arial,sans-serif;fill:#AAB8DC}.card{fill:#202442;stroke:#48527E;stroke-width:1.1}.track{stroke:#3B426A;stroke-width:6;stroke-linecap:round}</style>
  </defs>
  <rect x="0.5" y="0.5" width="349" height="259" rx="8" fill="url(#bg)" stroke="#304A78"/>
  <text class="title" x="13" y="25">Codex Usage</text><text class="sub" x="13" y="39">Codex rate limit</text>
  <circle cx="326" cy="20" r="9" fill="#4EA2FF"/><path d="M323 14.5h6M325 15v5.5M327 15v5.5M322 20.5h8M326 20.5v6" stroke="#F7FBFF" stroke-width="1.4" stroke-linecap="round"/>
  <line x1="13" y1="49" x2="335" y2="49" stroke="#2F65A3"/>
  <rect class="card" x="9" y="63" width="157" height="184" rx="10"/><text class="label" x="27" y="86">5h</text><circle class="track" cx="87" cy="154" r="50"/><circle cx="87" cy="154" r="50" stroke="url(#blue)" stroke-width="6" stroke-linecap="round" pathLength="100" stroke-dasharray="100 100" transform="rotate(-90 87 154)"/><text class="percent" x="87" y="163" text-anchor="middle">100%</text><text class="time" x="87" y="226" text-anchor="middle">4h 59m</text>
  <rect class="card" x="179" y="63" width="157" height="184" rx="10"/><text class="label" x="197" y="86">1w</text><circle class="track" cx="257" cy="154" r="50"/><circle cx="257" cy="154" r="50" stroke="url(#blue)" stroke-width="6" stroke-linecap="round" pathLength="100" stroke-dasharray="97 100" transform="rotate(-90 257 154)"/><text class="percent" x="257" y="163" text-anchor="middle">97%</text><text class="time" x="257" y="226" text-anchor="middle">6d 13h</text>
</svg>